<svg width="477" height="47" viewBox="0 0 477 47" fill="none" xmlns="http://www.w3.org/2000/svg">
<path d="M0.420625 46.06C0.420625 45.78 0.440625 45.46 0.480625 45.1C0.520625 44.74 0.600625 44.42 0.720625 44.14C2.36063 43.98 3.58063 43.82 4.38063 43.66C5.18063 43.46 5.74063 43.08 6.06063 42.52C6.42063 41.92 6.72063 40.94 6.96063 39.58L12.4806 11.14C12.6406 10.38 12.7606 9.76 12.8406 9.28C12.9206 8.76 12.9606 8.32 12.9606 7.96C12.9606 7.04 12.6006 6.5 11.8806 6.34C11.2006 6.14 9.82063 5.98 7.74063 5.86C7.78063 5.26 7.90063 4.62 8.10063 3.94C8.82063 3.94 9.70063 3.96 10.7406 4C11.8206 4 12.8606 4.02 13.8606 4.06C14.9006 4.06 15.6806 4.06 16.2006 4.06C16.7606 4.06 17.6406 4.06 18.8406 4.06C20.0406 4.02 21.2406 4 22.4406 4C23.6406 3.96 24.5406 3.94 25.1406 3.94C29.1006 3.94 32.5606 4.54 35.5206 5.74C38.5206 6.9 40.8606 8.74 42.5406 11.26C44.2206 13.78 45.0606 17.06 45.0606 21.1C45.0606 25.18 44.3606 28.78 42.9606 31.9C41.6006 34.98 39.6606 37.58 37.1406 39.7C34.6606 41.82 31.7406 43.42 28.3806 44.5C25.0206 45.54 21.3806 46.06 17.4606 46.06C16.5006 46.06 15.3206 46.04 13.9206 46C12.5206 45.96 11.1806 45.94 9.90063 45.94C9.02063 45.94 7.98063 45.96 6.78063 46C5.62063 46 4.46063 46 3.30063 46C2.18063 46.04 1.22063 46.06 0.420625 46.06ZM22.3806 6.4C21.5806 6.4 20.7806 6.44 19.9806 6.52L12.9006 43.18C14.6206 43.46 16.3006 43.6 17.9406 43.6C21.1406 43.6 23.8806 43.14 26.1606 42.22C28.4406 41.26 30.3406 40.02 31.8606 38.5C33.3806 36.94 34.5806 35.22 35.4606 33.34C36.3406 31.42 36.9606 29.48 37.3206 27.52C37.7206 25.52 37.9206 23.66 37.9206 21.94C37.9206 16.9 36.5806 13.06 33.9006 10.42C31.2206 7.74 27.3806 6.4 22.3806 6.4ZM55.6623 46.66C54.4223 46.66 53.2423 46.34 52.1223 45.7C51.0023 45.02 50.1023 43.98 49.4223 42.58C48.7423 41.18 48.4023 39.38 48.4023 37.18C48.4023 34.46 48.9223 31.9 49.9623 29.5C51.0023 27.1 52.3623 24.98 54.0423 23.14C55.7223 21.3 57.5623 19.86 59.5623 18.82C61.6023 17.74 63.6023 17.2 65.5623 17.2C66.3223 17.2 67.1823 17.32 68.1423 17.56C69.1023 17.76 70.1023 18.12 71.1423 18.64C71.9823 18.52 72.8423 18.4 73.7223 18.28C74.6423 18.16 75.5823 18.02 76.5423 17.86L76.7223 18.1C76.2423 19.78 75.8223 21.38 75.4623 22.9C75.1023 24.38 74.7423 25.9 74.3823 27.46L71.6223 39.34C71.5823 39.62 71.5023 39.98 71.3823 40.42C71.2623 40.86 71.2023 41.28 71.2023 41.68C71.2023 42.04 71.2823 42.34 71.4423 42.58C71.6023 42.82 71.8823 42.94 72.2823 42.94C72.9623 42.94 73.8223 42.58 74.8623 41.86C75.9023 41.14 76.8423 40.26 77.6823 39.22C78.2023 39.58 78.6623 39.98 79.0623 40.42C77.7023 42.22 76.2423 43.72 74.6823 44.92C73.1223 46.12 71.3623 46.72 69.4023 46.72C67.9223 46.72 66.8623 46.36 66.2223 45.64C65.5823 44.92 65.2623 43.98 65.2623 42.82C65.2623 41.74 65.4823 40.5 65.9223 39.1H65.6223C64.1423 41.66 62.5423 43.56 60.8223 44.8C59.1423 46.04 57.4223 46.66 55.6623 46.66ZM58.0623 42.88C59.1023 42.88 60.2423 42.38 61.4823 41.38C62.7623 40.34 64.0023 38.7 65.2023 36.46C66.4423 34.18 67.5023 31.18 68.3823 27.46L69.5823 22.42C68.7423 21.66 67.8623 21.06 66.9423 20.62C66.0223 20.14 65.0823 19.9 64.1223 19.9C62.6423 19.9 61.3223 20.44 60.1623 21.52C59.0023 22.6 58.0223 24 57.2223 25.72C56.4223 27.4 55.8223 29.22 55.4223 31.18C55.0223 33.1 54.8223 34.94 54.8223 36.7C54.8223 39.1 55.1423 40.74 55.7823 41.62C56.4223 42.46 57.1823 42.88 58.0623 42.88ZM91.4092 35.08L88.8892 46H82.8892L87.8092 24.7C88.0892 23.54 88.2292 22.78 88.2292 22.42C88.2292 21.46 87.8692 20.98 87.1492 20.98C86.5892 20.98 85.8492 21.3 84.9292 21.94C84.0492 22.54 83.1692 23.3 82.2892 24.22C82.0092 24.02 81.7492 23.82 81.5092 23.62C81.3092 23.42 81.1092 23.2 80.9092 22.96C82.5092 21.08 84.1492 19.68 85.8292 18.76C87.5492 17.8 89.1492 17.32 90.6292 17.32C91.9892 17.32 92.9492 17.66 93.5092 18.34C94.0692 19.02 94.3492 19.82 94.3492 20.74C94.3492 21.22 94.2692 21.8 94.1092 22.48C93.9892 23.12 93.8692 23.8 93.7492 24.52H93.9292C95.4492 22.08 97.2292 20.26 99.2692 19.06C101.349 17.82 103.349 17.2 105.269 17.2C107.189 17.2 108.649 17.74 109.649 18.82C110.689 19.86 111.209 21.14 111.209 22.66C111.209 23.5 111.049 24.62 110.729 26.02C110.449 27.42 110.089 28.92 109.649 30.52C109.209 32.12 108.769 33.7 108.329 35.26C107.889 36.78 107.509 38.14 107.189 39.34C106.909 40.5 106.769 41.32 106.769 41.8C106.769 42.08 106.849 42.34 107.009 42.58C107.169 42.82 107.449 42.94 107.849 42.94C108.529 42.94 109.389 42.58 110.429 41.86C111.469 41.14 112.409 40.26 113.249 39.22C113.769 39.58 114.229 39.98 114.629 40.42C113.269 42.22 111.789 43.72 110.189 44.92C108.629 46.12 106.889 46.72 104.969 46.72C103.489 46.72 102.409 46.36 101.729 45.64C101.049 44.88 100.709 43.94 100.709 42.82C100.709 42.02 100.849 40.96 101.129 39.64C101.449 38.32 101.829 36.88 102.269 35.32C102.709 33.76 103.129 32.22 103.529 30.7C103.969 29.14 104.329 27.72 104.609 26.44C104.929 25.16 105.089 24.16 105.089 23.44C105.089 22.64 104.909 21.98 104.549 21.46C104.189 20.94 103.549 20.68 102.629 20.68C101.469 20.68 100.169 21.18 98.7292 22.18C97.2892 23.18 95.9092 24.7 94.5892 26.74C93.3092 28.78 92.2892 31.4 91.5292 34.6L91.4092 35.08ZM129.013 10.36C127.933 10.36 127.053 10 126.373 9.28C125.693 8.56 125.353 7.68 125.353 6.64C125.353 5.44 125.773 4.42 126.613 3.58C127.493 2.7 128.533 2.26 129.733 2.26C130.813 2.26 131.673 2.62 132.313 3.34C132.953 4.02 133.273 4.88 133.273 5.92C133.273 7.12 132.873 8.16 132.073 9.04C131.273 9.92 130.253 10.36 129.013 10.36ZM131.773 39.22C132.293 39.58 132.753 39.98 133.153 40.42C131.793 42.22 130.313 43.72 128.713 44.92C127.153 46.12 125.413 46.72 123.493 46.72C122.013 46.72 120.933 46.36 120.253 45.64C119.573 44.88 119.233 43.88 119.233 42.64C119.233 42.2 119.273 41.74 119.353 41.26C119.433 40.74 119.533 40.22 119.653 39.7L123.253 24.7C123.533 23.54 123.673 22.78 123.673 22.42C123.673 21.46 123.313 20.98 122.593 20.98C122.033 20.98 121.293 21.3 120.373 21.94C119.493 22.54 118.613 23.3 117.733 24.22C117.453 24.02 117.193 23.82 116.953 23.62C116.753 23.42 116.553 23.2 116.353 22.96C117.953 21.08 119.593 19.68 121.273 18.76C122.993 17.8 124.593 17.32 126.073 17.32C127.433 17.32 128.393 17.68 128.953 18.4C129.553 19.08 129.853 19.94 129.853 20.98C129.853 21.34 129.813 21.74 129.733 22.18C129.693 22.58 129.633 23 129.553 23.44L125.713 39.4C125.673 39.68 125.593 40.04 125.473 40.48C125.353 40.88 125.293 41.28 125.293 41.68C125.293 42.04 125.373 42.34 125.533 42.58C125.693 42.82 125.973 42.94 126.373 42.94C127.053 42.94 127.913 42.58 128.953 41.86C129.993 41.14 130.933 40.26 131.773 39.22ZM157.975 38.98C156.615 41.3 154.955 43.18 152.995 44.62C151.035 46.02 148.695 46.72 145.975 46.72C142.815 46.72 140.315 45.78 138.475 43.9C136.675 41.98 135.775 39.42 135.775 36.22C135.775 33.98 136.215 31.74 137.095 29.5C137.975 27.26 139.195 25.22 140.755 23.38C142.355 21.5 144.235 20 146.395 18.88C148.595 17.76 150.975 17.2 153.535 17.2C155.775 17.2 157.415 17.64 158.455 18.52C159.535 19.4 160.075 20.6 160.075 22.12C160.075 23.68 159.575 25.08 158.575 26.32C157.575 27.52 156.215 28.56 154.495 29.44C152.815 30.32 150.935 31.04 148.855 31.6C146.775 32.16 144.655 32.56 142.495 32.8C142.255 34.04 142.135 35.2 142.135 36.28C142.135 38.28 142.575 39.88 143.455 41.08C144.335 42.24 145.755 42.82 147.715 42.82C149.435 42.82 151.055 42.36 152.575 41.44C154.095 40.52 155.435 39.32 156.595 37.84C157.235 38.2 157.695 38.58 157.975 38.98ZM151.855 19.72C150.615 19.72 149.415 20.26 148.255 21.34C147.095 22.38 146.055 23.74 145.135 25.42C144.215 27.1 143.495 28.86 142.975 30.7C144.855 30.46 146.655 30.02 148.375 29.38C150.135 28.7 151.575 27.82 152.695 26.74C153.815 25.62 154.375 24.26 154.375 22.66C154.375 21.78 154.175 21.08 153.775 20.56C153.375 20 152.735 19.72 151.855 19.72ZM176.173 39.22C176.693 39.58 177.153 39.98 177.553 40.42C176.193 42.22 174.713 43.72 173.113 44.92C171.553 46.12 169.813 46.72 167.893 46.72C166.413 46.72 165.333 46.36 164.653 45.64C163.973 44.88 163.633 43.88 163.633 42.64C163.633 42.2 163.673 41.72 163.753 41.2C163.833 40.68 163.933 40.16 164.053 39.64L170.353 8.98C170.473 8.42 170.573 7.92 170.653 7.48C170.733 7 170.773 6.62 170.773 6.34C170.773 5.54 170.413 5.06 169.693 4.9C169.013 4.7 167.713 4.58 165.793 4.54C165.753 4.26 165.713 4 165.673 3.76C165.673 3.48 165.693 3.2 165.733 2.92C167.893 2.76 169.993 2.54 172.033 2.26C174.113 1.94 175.893 1.48 177.373 0.879998L178.153 1.3C177.753 2.78 177.333 4.4 176.893 6.16C176.493 7.92 176.073 9.9 175.633 12.1L170.053 39.28C170.013 39.56 169.933 39.94 169.813 40.42C169.733 40.86 169.693 41.28 169.693 41.68C169.693 42.04 169.773 42.34 169.933 42.58C170.093 42.82 170.373 42.94 170.773 42.94C171.453 42.94 172.313 42.58 173.353 41.86C174.393 41.14 175.333 40.26 176.173 39.22ZM213.504 5.5C210.824 5.5 208.764 6.24 207.324 7.72C205.924 9.2 205.224 11 205.224 13.12C205.224 14.72 205.704 16.1 206.664 17.26C207.624 18.42 209.324 19.06 211.764 19.18C211.724 19.5 211.664 19.84 211.584 20.2C211.504 20.56 211.404 20.9 211.284 21.22C207.684 21.86 204.844 23.16 202.764 25.12C200.724 27.04 199.704 29.64 199.704 32.92C199.704 35.48 200.284 37.52 201.444 39.04C202.604 40.52 204.084 41.6 205.884 42.28C207.724 42.92 209.624 43.24 211.584 43.24C213.384 43.24 215.164 43 216.924 42.52C218.724 42 220.364 41.22 221.844 40.18C223.364 39.14 224.564 37.82 225.444 36.22C226.364 34.62 226.824 32.72 226.824 30.52C226.824 28 226.184 26.04 224.904 24.64C223.664 23.24 221.944 22.54 219.744 22.54C217.864 22.54 216.524 23 215.724 23.92C214.924 24.8 214.524 25.82 214.524 26.98C214.524 27.42 214.584 27.84 214.704 28.24C215.424 28.08 216.104 28 216.744 28C217.904 28 218.884 28.28 219.684 28.84C220.524 29.36 220.944 30.14 220.944 31.18C220.944 31.94 220.684 32.62 220.164 33.22C219.644 33.78 218.804 34.06 217.644 34.06C216.044 34.06 214.704 33.46 213.624 32.26C212.544 31.06 212.004 29.54 212.004 27.7C212.004 25.98 212.464 24.42 213.384 23.02C214.304 21.58 215.544 20.44 217.104 19.6C218.704 18.76 220.444 18.34 222.324 18.34C223.884 18.34 225.224 18.6 226.344 19.12C227.464 19.6 228.464 20.1 229.344 20.62C230.224 21.14 231.024 21.58 231.744 21.94C232.464 22.26 233.204 22.42 233.964 22.42C234.644 22.42 235.464 22.16 236.424 21.64C237.384 21.12 238.384 20.02 239.424 18.34C240.064 18.62 240.564 18.98 240.924 19.42C239.284 22.46 237.704 24.5 236.184 25.54C234.664 26.58 233.264 27.1 231.984 27.1C231.184 27.1 230.464 26.96 229.824 26.68C229.184 26.4 228.604 26.08 228.084 25.72L227.964 25.84C228.444 26.84 228.764 27.84 228.924 28.84C229.084 29.8 229.164 30.66 229.164 31.42C229.164 34.26 228.344 36.84 226.704 39.16C225.104 41.48 222.864 43.32 219.984 44.68C217.104 46.04 213.764 46.72 209.964 46.72C207.004 46.72 204.224 46.24 201.624 45.28C199.024 44.32 196.904 42.9 195.264 41.02C193.664 39.1 192.864 36.68 192.864 33.76C192.864 31.52 193.364 29.56 194.364 27.88C195.364 26.2 196.704 24.8 198.384 23.68C200.104 22.52 202.024 21.64 204.144 21.04V20.8C203.464 20.6 202.704 20.2 201.864 19.6C201.064 19 200.364 18.2 199.764 17.2C199.204 16.16 198.924 14.96 198.924 13.6C198.924 11.6 199.604 9.82 200.964 8.26C202.324 6.7 204.144 5.48 206.424 4.6C208.744 3.68 211.284 3.22 214.044 3.22C217.284 3.22 219.704 3.78 221.304 4.9C222.904 5.98 223.704 7.16 223.704 8.44C223.704 9.04 223.484 9.66 223.044 10.3C222.644 10.9 221.924 11.2 220.884 11.2C219.484 11.2 218.424 10.64 217.704 9.52C217.024 8.36 216.644 7.16 216.564 5.92C215.564 5.64 214.544 5.5 213.504 5.5ZM273.533 46.9C267.813 46.9 263.273 45.34 259.913 42.22C256.593 39.1 254.933 34.58 254.933 28.66C254.933 25.3 255.493 22.1 256.613 19.06C257.733 16.02 259.373 13.32 261.533 10.96C263.693 8.6 266.313 6.74 269.393 5.38C272.513 4.02 276.073 3.34 280.073 3.34C282.273 3.34 284.153 3.5 285.713 3.82C287.273 4.14 288.653 4.48 289.853 4.84C291.093 5.16 292.273 5.32 293.393 5.32C293.993 5.32 294.533 5.26 295.013 5.14C294.773 6.86 294.553 8.64 294.353 10.48C294.153 12.32 293.933 14.26 293.693 16.3C293.093 16.42 292.593 16.48 292.193 16.48C292.033 16.48 291.913 16.48 291.833 16.48C291.753 16.44 291.653 16.42 291.533 16.42C290.573 9.34 286.773 5.8 280.133 5.8C276.973 5.8 274.253 6.52 271.973 7.96C269.693 9.36 267.813 11.24 266.333 13.6C264.893 15.92 263.833 18.5 263.153 21.34C262.473 24.18 262.133 27.04 262.133 29.92C262.133 34.48 263.053 38.02 264.893 40.54C266.733 43.06 269.773 44.32 274.013 44.32C276.813 44.32 279.533 43.76 282.173 42.64L283.553 35.5C283.673 34.94 283.773 34.38 283.853 33.82C283.973 33.22 284.033 32.7 284.033 32.26C284.033 31.34 283.653 30.74 282.893 30.46C282.173 30.18 280.693 29.96 278.453 29.8C278.533 29.2 278.673 28.58 278.873 27.94C279.753 27.94 280.833 27.96 282.113 28C283.433 28 284.733 28.02 286.013 28.06C287.293 28.06 288.293 28.06 289.013 28.06C290.133 28.06 291.433 28.04 292.913 28C294.393 27.96 295.633 27.94 296.633 27.94C296.633 28.22 296.613 28.52 296.573 28.84C296.533 29.12 296.433 29.42 296.273 29.74C295.033 29.86 294.033 30 293.273 30.16C292.553 30.28 291.993 30.54 291.593 30.94C291.193 31.34 290.873 31.98 290.633 32.86C290.393 33.74 290.113 34.98 289.793 36.58C289.513 38.18 289.253 39.58 289.013 40.78C288.813 41.94 288.653 43.06 288.533 44.14C286.133 44.9 283.633 45.54 281.033 46.06C278.473 46.62 275.973 46.9 273.533 46.9ZM311.005 10.36C309.925 10.36 309.045 10 308.365 9.28C307.685 8.56 307.345 7.68 307.345 6.64C307.345 5.44 307.765 4.42 308.605 3.58C309.485 2.7 310.525 2.26 311.725 2.26C312.805 2.26 313.665 2.62 314.305 3.34C314.945 4.02 315.265 4.88 315.265 5.92C315.265 7.12 314.865 8.16 314.065 9.04C313.265 9.92 312.245 10.36 311.005 10.36ZM313.765 39.22C314.285 39.58 314.745 39.98 315.145 40.42C313.785 42.22 312.305 43.72 310.705 44.92C309.145 46.12 307.405 46.72 305.485 46.72C304.005 46.72 302.925 46.36 302.245 45.64C301.565 44.88 301.225 43.88 301.225 42.64C301.225 42.2 301.265 41.74 301.345 41.26C301.425 40.74 301.525 40.22 301.645 39.7L305.245 24.7C305.525 23.54 305.665 22.78 305.665 22.42C305.665 21.46 305.305 20.98 304.585 20.98C304.025 20.98 303.285 21.3 302.365 21.94C301.485 22.54 300.605 23.3 299.725 24.22C299.445 24.02 299.185 23.82 298.945 23.62C298.745 23.42 298.545 23.2 298.345 22.96C299.945 21.08 301.585 19.68 303.265 18.76C304.985 17.8 306.585 17.32 308.065 17.32C309.425 17.32 310.385 17.68 310.945 18.4C311.545 19.08 311.845 19.94 311.845 20.98C311.845 21.34 311.805 21.74 311.725 22.18C311.685 22.58 311.625 23 311.545 23.44L307.705 39.4C307.665 39.68 307.585 40.04 307.465 40.48C307.345 40.88 307.285 41.28 307.285 41.68C307.285 42.04 307.365 42.34 307.525 42.58C307.685 42.82 307.965 42.94 308.365 42.94C309.045 42.94 309.905 42.58 310.945 41.86C311.985 41.14 312.925 40.26 313.765 39.22ZM345.068 28.96C345.068 31 344.728 33.06 344.048 35.14C343.408 37.22 342.428 39.14 341.108 40.9C339.788 42.62 338.148 44.02 336.188 45.1C334.228 46.18 331.968 46.72 329.408 46.72C327.248 46.72 325.428 46.34 323.948 45.58C322.508 44.82 321.348 43.84 320.468 42.64C319.588 41.44 318.948 40.14 318.548 38.74C318.188 37.3 318.008 35.92 318.008 34.6C318.008 32.88 318.308 31.02 318.908 29.02C319.548 27.02 320.508 25.12 321.788 23.32C323.068 21.52 324.708 20.06 326.708 18.94C328.708 17.78 331.088 17.2 333.848 17.2C336.448 17.2 338.568 17.74 340.208 18.82C341.888 19.86 343.108 21.28 343.868 23.08C344.668 24.84 345.068 26.8 345.068 28.96ZM338.708 28C338.708 25.52 338.308 23.48 337.508 21.88C336.748 20.24 335.448 19.42 333.608 19.42C332.168 19.42 330.868 19.9 329.708 20.86C328.588 21.82 327.628 23.1 326.828 24.7C326.028 26.3 325.408 28.06 324.968 29.98C324.568 31.86 324.368 33.76 324.368 35.68C324.368 38.16 324.768 40.26 325.568 41.98C326.408 43.66 327.768 44.5 329.648 44.5C331.128 44.5 332.428 44 333.548 43C334.668 42 335.608 40.68 336.368 39.04C337.128 37.4 337.708 35.62 338.108 33.7C338.508 31.74 338.708 29.84 338.708 28ZM355.348 46C355.428 44.56 355.468 43.18 355.468 41.86C355.468 40.5 355.468 39.2 355.468 37.96C355.468 34.68 355.368 31.8 355.168 29.32C354.968 26.8 354.608 24.82 354.088 23.38C353.568 21.94 352.828 21.22 351.868 21.22C351.388 21.22 350.768 21.44 350.008 21.88C349.248 22.28 348.408 22.96 347.488 23.92C347.208 23.72 346.968 23.52 346.768 23.32C346.528 23.12 346.308 22.9 346.108 22.66C347.548 20.9 349.028 19.6 350.548 18.76C352.068 17.88 353.508 17.44 354.868 17.44C357.308 17.44 358.948 18.84 359.788 21.64C360.628 24.44 361.048 28.28 361.048 33.16C361.048 34.32 361.028 35.6 360.988 37C360.988 38.36 360.968 39.6 360.928 40.72C362.928 38.96 364.668 37.14 366.148 35.26C367.628 33.38 368.828 31.58 369.748 29.86C370.668 28.14 371.268 26.68 371.548 25.48C370.508 24.84 369.748 24.1 369.268 23.26C368.828 22.38 368.608 21.54 368.608 20.74C368.608 19.78 368.888 18.96 369.448 18.28C370.048 17.56 370.848 17.2 371.848 17.2C372.768 17.2 373.628 17.56 374.428 18.28C375.228 19 375.628 20.14 375.628 21.7C375.628 23.5 374.968 25.78 373.648 28.54C372.328 31.3 370.348 34.26 367.708 37.42C365.108 40.58 361.868 43.66 357.988 46.66C357.668 46.66 357.228 46.58 356.668 46.42C356.108 46.3 355.668 46.16 355.348 46ZM384.842 46.66C383.602 46.66 382.422 46.34 381.302 45.7C380.182 45.02 379.282 43.98 378.602 42.58C377.922 41.18 377.582 39.38 377.582 37.18C377.582 34.46 378.102 31.9 379.142 29.5C380.182 27.1 381.542 24.98 383.222 23.14C384.902 21.3 386.742 19.86 388.742 18.82C390.782 17.74 392.782 17.2 394.742 17.2C395.502 17.2 396.362 17.32 397.322 17.56C398.282 17.76 399.282 18.12 400.322 18.64C401.162 18.52 402.022 18.4 402.902 18.28C403.822 18.16 404.762 18.02 405.722 17.86L405.902 18.1C405.422 19.78 405.002 21.38 404.642 22.9C404.282 24.38 403.922 25.9 403.562 27.46L400.802 39.34C400.762 39.62 400.682 39.98 400.562 40.42C400.442 40.86 400.382 41.28 400.382 41.68C400.382 42.04 400.462 42.34 400.622 42.58C400.782 42.82 401.062 42.94 401.462 42.94C402.142 42.94 403.002 42.58 404.042 41.86C405.082 41.14 406.022 40.26 406.862 39.22C407.382 39.58 407.842 39.98 408.242 40.42C406.882 42.22 405.422 43.72 403.862 44.92C402.302 46.12 400.542 46.72 398.582 46.72C397.102 46.72 396.042 46.36 395.402 45.64C394.762 44.92 394.442 43.98 394.442 42.82C394.442 41.74 394.662 40.5 395.102 39.1H394.802C393.322 41.66 391.722 43.56 390.002 44.8C388.322 46.04 386.602 46.66 384.842 46.66ZM387.242 42.88C388.282 42.88 389.422 42.38 390.662 41.38C391.942 40.34 393.182 38.7 394.382 36.46C395.622 34.18 396.682 31.18 397.562 27.46L398.762 22.42C397.922 21.66 397.042 21.06 396.122 20.62C395.202 20.14 394.262 19.9 393.302 19.9C391.822 19.9 390.502 20.44 389.342 21.52C388.182 22.6 387.202 24 386.402 25.72C385.602 27.4 385.002 29.22 384.602 31.18C384.202 33.1 384.002 34.94 384.002 36.7C384.002 39.1 384.322 40.74 384.962 41.62C385.602 42.46 386.362 42.88 387.242 42.88ZM420.589 35.08L418.069 46H412.069L416.989 24.7C417.269 23.54 417.409 22.78 417.409 22.42C417.409 21.46 417.049 20.98 416.329 20.98C415.769 20.98 415.029 21.3 414.109 21.94C413.229 22.54 412.349 23.3 411.469 24.22C411.189 24.02 410.929 23.82 410.689 23.62C410.489 23.42 410.289 23.2 410.089 22.96C411.689 21.08 413.329 19.68 415.009 18.76C416.729 17.8 418.329 17.32 419.809 17.32C421.169 17.32 422.129 17.66 422.689 18.34C423.249 19.02 423.529 19.82 423.529 20.74C423.529 21.22 423.449 21.8 423.289 22.48C423.169 23.12 423.049 23.8 422.929 24.52H423.109C424.629 22.08 426.409 20.26 428.449 19.06C430.529 17.82 432.529 17.2 434.449 17.2C436.369 17.2 437.829 17.74 438.829 18.82C439.869 19.86 440.389 21.14 440.389 22.66C440.389 23.5 440.229 24.62 439.909 26.02C439.629 27.42 439.269 28.92 438.829 30.52C438.389 32.12 437.949 33.7 437.509 35.26C437.069 36.78 436.689 38.14 436.369 39.34C436.089 40.5 435.949 41.32 435.949 41.8C435.949 42.08 436.029 42.34 436.189 42.58C436.349 42.82 436.629 42.94 437.029 42.94C437.709 42.94 438.569 42.58 439.609 41.86C440.649 41.14 441.589 40.26 442.429 39.22C442.949 39.58 443.409 39.98 443.809 40.42C442.449 42.22 440.969 43.72 439.369 44.92C437.809 46.12 436.069 46.72 434.149 46.72C432.669 46.72 431.589 46.36 430.909 45.64C430.229 44.88 429.889 43.94 429.889 42.82C429.889 42.02 430.029 40.96 430.309 39.64C430.629 38.32 431.009 36.88 431.449 35.32C431.889 33.76 432.309 32.22 432.709 30.7C433.149 29.14 433.509 27.72 433.789 26.44C434.109 25.16 434.269 24.16 434.269 23.44C434.269 22.64 434.089 21.98 433.729 21.46C433.369 20.94 432.729 20.68 431.809 20.68C430.649 20.68 429.349 21.18 427.909 22.18C426.469 23.18 425.089 24.7 423.769 26.74C422.489 28.78 421.469 31.4 420.709 34.6L420.589 35.08ZM453.573 46.66C452.333 46.66 451.153 46.34 450.033 45.7C448.913 45.02 448.013 43.98 447.333 42.58C446.653 41.18 446.313 39.38 446.313 37.18C446.313 34.46 446.833 31.9 447.873 29.5C448.913 27.1 450.273 24.98 451.953 23.14C453.633 21.3 455.473 19.86 457.473 18.82C459.513 17.74 461.513 17.2 463.473 17.2C464.233 17.2 465.093 17.32 466.053 17.56C467.013 17.76 468.013 18.12 469.053 18.64C469.893 18.52 470.753 18.4 471.633 18.28C472.553 18.16 473.493 18.02 474.453 17.86L474.633 18.1C474.153 19.78 473.733 21.38 473.373 22.9C473.013 24.38 472.653 25.9 472.293 27.46L469.533 39.34C469.493 39.62 469.413 39.98 469.293 40.42C469.173 40.86 469.113 41.28 469.113 41.68C469.113 42.04 469.193 42.34 469.353 42.58C469.513 42.82 469.793 42.94 470.193 42.94C470.873 42.94 471.733 42.58 472.773 41.86C473.813 41.14 474.753 40.26 475.593 39.22C476.113 39.58 476.573 39.98 476.973 40.42C475.613 42.22 474.153 43.72 472.593 44.92C471.033 46.12 469.273 46.72 467.313 46.72C465.833 46.72 464.773 46.36 464.133 45.64C463.493 44.92 463.173 43.98 463.173 42.82C463.173 41.74 463.393 40.5 463.833 39.1H463.533C462.053 41.66 460.453 43.56 458.733 44.8C457.053 46.04 455.333 46.66 453.573 46.66ZM455.973 42.88C457.013 42.88 458.153 42.38 459.393 41.38C460.673 40.34 461.913 38.7 463.113 36.46C464.353 34.18 465.413 31.18 466.293 27.46L467.493 22.42C466.653 21.66 465.773 21.06 464.853 20.62C463.933 20.14 462.993 19.9 462.033 19.9C460.553 19.9 459.233 20.44 458.073 21.52C456.913 22.6 455.933 24 455.133 25.72C454.333 27.4 453.733 29.22 453.333 31.18C452.933 33.1 452.732 34.94 452.732 36.7C452.732 39.1 453.053 40.74 453.693 41.62C454.333 42.46 455.093 42.88 455.973 42.88Z" fill="#C6B6AC"/>
</svg>
