<svg width="100" height="58" viewBox="0 0 100 58" fill="none" xmlns="http://www.w3.org/2000/svg">
<path d="M99.8563 37.9344C99.512 35.9979 98.4226 34.3031 96.8051 33.1807C95.1871 32.053 93.2257 31.6264 91.2802 31.9757C90.8975 32.039 90.6422 32.4049 90.7163 32.7931C90.7795 33.1758 91.1568 33.4283 91.5336 33.3569C93.1069 33.0763 94.6919 33.4229 96.0045 34.3392C97.3139 35.2474 98.1863 36.6173 98.4723 38.1906C98.841 40.2346 98.3598 42.3727 97.1462 44.0648C96.4143 45.0854 95.4487 45.8585 94.3648 46.384C96.8381 44.3372 97.2398 40.6725 95.2314 38.1413C93.5533 36.0421 90.48 35.687 88.3754 37.371C86.634 38.7549 86.3422 41.3023 87.7284 43.0495C88.2895 43.7539 89.0933 44.1994 89.9875 44.3015C90.8979 44.3923 91.7727 44.1447 92.4775 43.589C92.6424 43.4512 92.7165 43.2641 92.7219 43.0608C92.8435 42.8435 92.9257 42.6094 92.9257 42.3456C92.9257 41.5201 92.2624 40.8491 91.4342 40.8491C90.6065 40.8491 89.9405 41.5201 89.9405 42.3456C89.9405 42.5267 89.9843 42.7002 90.0449 42.8629C89.5686 42.7861 89.1367 42.552 88.8367 42.1666C87.9317 41.0362 88.116 39.3771 89.2497 38.4716C90.7434 37.2833 92.9388 37.5282 94.1276 39.0251C95.6737 40.9675 95.3489 43.8095 93.4015 45.3638C90.9033 47.3527 87.9787 46.9953 85.1642 44.3594C85.0459 44.2491 84.8945 44.2166 84.749 44.2021C83.3926 42.8927 81.992 41.1871 80.3771 39.143C79.6452 38.224 78.9435 37.2332 78.2396 36.2513C78.4786 36.2929 78.7207 36.3507 78.9684 36.3507C79.7166 36.3507 80.4675 36.1474 81.2108 35.7344C82.1158 35.2198 82.7763 34.3839 83.0511 33.3854C83.3375 32.381 83.211 31.3273 82.6964 30.4137C82.2726 29.6542 81.574 29.1043 80.7318 28.8703C79.8847 28.6363 79.0122 28.7411 78.2531 29.1703C76.9297 29.9104 76.4562 31.5912 77.2022 32.9259C77.8379 34.0482 79.2629 34.4558 80.3961 33.8119C80.6659 33.6606 80.7481 33.3551 80.688 33.0664C80.7016 33.0145 80.7517 32.9977 80.7594 32.948C80.8281 32.4474 80.4869 31.9825 79.9863 31.9052C79.4997 31.8338 79.0542 32.1664 78.9711 32.648C78.7542 32.5848 78.5558 32.4474 78.4347 32.2355C78.0715 31.5862 78.3024 30.7635 78.9494 30.4002C79.3782 30.158 79.8792 30.0975 80.355 30.2326C80.8339 30.3645 81.2352 30.6808 81.4773 31.11C82.151 32.3096 81.7222 33.8336 80.5253 34.5104C78.5251 35.6409 76.9681 34.3559 76.1318 33.3547C72.6708 28.6801 68.7114 24.4654 61.8003 24.4654C61.7868 24.4654 61.7673 24.4654 61.7511 24.4654C58.342 24.4763 55.2443 25.8408 53.0435 28.306C52.0449 29.4229 51.3238 30.7576 50.7739 32.1768V29.4889C50.881 29.4012 50.9967 29.3266 51.0794 29.2028L52.8293 26.6193C52.9142 26.4928 52.9418 26.3468 52.9364 26.1982C55.4151 25.2078 57.3439 23.0892 58.0099 20.3602C58.1446 19.8017 58.1862 19.0697 58.164 18.2226C58.1613 18.0988 58.1505 17.975 58.1419 17.8485C57.8672 12.1008 54.755 1.64054 54.6009 1.1232C54.5295 0.88418 54.337 0.699382 54.0949 0.642C53.8527 0.584618 53.5915 0.655556 53.4207 0.837642C53.2531 1.01114 51.6984 2.63139 49.7632 4.81597C47.8249 2.63139 46.2688 1.00843 46.1066 0.837642C45.9317 0.656008 45.6773 0.587329 45.4324 0.642C45.1903 0.699834 44.9964 0.88418 44.9264 1.1232C44.7678 1.64054 41.6606 12.0981 41.3814 17.8485C41.3732 17.9718 41.3624 18.0961 41.3597 18.2226C41.3362 19.0697 41.3787 19.8017 41.5165 20.3602C42.2236 23.2681 44.3707 25.497 47.0893 26.3907C47.1096 26.4707 47.1209 26.5506 47.1661 26.622L48.9183 29.2056C49.0421 29.3899 49.1989 29.5273 49.3683 29.6321V32.5314C48.8221 30.9717 48.0368 29.5191 46.9569 28.3055C44.752 25.8404 41.6579 24.4758 38.2466 24.465C31.3576 24.4569 27.3711 28.6466 23.8921 33.3212C23.0666 34.3284 21.497 35.6545 19.4777 34.5127C18.2768 33.8359 17.8489 32.3119 18.5257 31.1123C18.7679 30.6857 19.1682 30.3695 19.644 30.2348C20.1198 30.1002 20.6236 30.1634 21.0528 30.4052C21.698 30.7657 21.9316 31.5885 21.5715 32.2373C21.4531 32.4524 21.2521 32.5866 21.0347 32.6498C20.9453 32.1713 20.5052 31.8356 20.0154 31.9097C19.5116 31.9843 19.1682 32.4492 19.2464 32.9525C19.2518 33.0023 19.3029 33.0239 19.3137 33.0709C19.2572 33.3601 19.3399 33.6655 19.6065 33.8164C20.7302 34.4607 22.1652 34.0505 22.8018 32.9277C23.5419 31.5962 23.0689 29.9181 21.7482 29.1753C20.9905 28.746 20.1112 28.6385 19.2708 28.8753C18.4291 29.1093 17.7301 29.6592 17.3026 30.4187C16.7894 31.3296 16.6629 32.3832 16.9475 33.3899C17.2322 34.3885 17.8855 35.2252 18.7923 35.7394C19.5311 36.1492 20.2861 36.3557 21.0343 36.3557C21.2778 36.3557 21.52 36.2947 21.759 36.2563C21.0546 37.2413 20.3529 38.2317 19.6255 39.1475C18.0066 41.1893 16.6141 42.8918 15.2622 44.2017C15.1108 44.213 14.9554 44.2487 14.8316 44.3616C12.0172 47.0003 9.09523 47.355 6.59572 45.366C4.64926 43.8145 4.3262 40.9697 5.87235 39.0301C7.06336 37.5336 9.25337 37.2833 10.7489 38.4748C11.8825 39.3798 12.0737 41.0389 11.1655 42.1698C10.8641 42.5552 10.4335 42.7861 9.95776 42.8656C10.017 42.7034 10.0621 42.5331 10.0621 42.3483C10.0621 41.5232 9.39614 40.8518 8.5684 40.8518C7.7402 40.8518 7.07285 41.5232 7.07285 42.3483C7.07285 42.6121 7.1596 42.8489 7.28024 43.0635C7.28611 43.2614 7.35886 43.4512 7.52513 43.589C8.22953 44.1502 9.1142 44.3978 10.0111 44.3042C10.9066 44.1999 11.7127 43.7566 12.2698 43.0522C13.6564 41.3082 13.3713 38.7603 11.6245 37.3737C9.51994 35.6983 6.44391 36.0453 4.76176 38.1472C2.7561 40.6729 3.15913 44.3426 5.63514 46.3871C4.5485 45.8585 3.58159 45.0881 2.84963 44.0675C1.64054 42.3727 1.1589 40.2378 1.52759 38.1879C1.80998 36.6146 2.68607 35.2469 3.99546 34.3387C5.30486 33.431 6.89528 33.0818 8.46628 33.3565C8.84717 33.4252 9.21632 33.1753 9.28364 32.7926C9.35096 32.4049 9.09794 32.0385 8.71569 31.9752C6.77736 31.626 4.81282 32.0493 3.19257 33.1803C1.57367 34.3026 0.488387 35.9974 0.14274 37.9339C-0.291916 40.353 0.274674 42.8837 1.70244 44.8839C3.09452 46.8263 5.14852 48.1 7.47724 48.4574C13.3072 49.3493 16.7532 45.0267 20.7243 40.0168C20.7478 39.9916 20.7668 39.9617 20.7835 39.9369C20.7862 39.9342 20.7921 39.9342 20.7971 39.9315C21.6569 38.9817 23.3987 37.5847 25.4233 38.9379C26.5678 39.6979 26.8854 41.249 26.1304 42.3885C25.5652 43.2384 24.4067 43.4643 23.5582 42.9081C23.2568 42.7075 23.0517 42.3989 22.9844 42.0469C22.9125 41.6949 22.9844 41.3425 23.1782 41.0511C23.3363 40.817 23.5731 40.6991 23.8234 40.6634C23.9074 41.1175 24.3046 41.4559 24.7781 41.4229C25.2855 41.3818 25.6542 40.939 25.6117 40.4348C25.6063 40.3607 25.5417 40.3191 25.5169 40.2536C25.5336 40.0087 25.4712 39.7665 25.2512 39.6211C24.1781 38.9139 22.7241 39.2027 22.0089 40.2649C21.6031 40.8731 21.4599 41.6104 21.6004 42.3257C21.745 43.0495 22.1616 43.6712 22.7752 44.081C23.3309 44.4475 23.9553 44.6201 24.5784 44.6201C25.6348 44.6201 26.6776 44.1113 27.3079 43.1674C28.4881 41.3791 27.9929 38.9555 26.2072 37.7668C25.1563 37.0678 24.0349 36.8342 22.9247 37.0456C23.068 36.8423 23.218 36.6498 23.3639 36.4519C23.9278 35.6622 24.4957 34.8696 25.0763 34.0966C25.0971 34.0668 25.122 34.0496 25.1355 34.0279C25.1409 34.0225 25.1355 34.0143 25.1409 34.0058C28.3697 29.6922 32.0494 25.8706 38.1996 25.8706C38.2136 25.8706 38.2299 25.8706 38.2453 25.8706C41.2481 25.8788 43.969 27.0784 45.9073 29.2408C48.0792 31.6703 49.0999 35.1037 48.7136 38.6636C48.4258 41.2634 47.1494 43.5967 45.1108 45.2364C43.2262 46.7468 40.893 47.4539 38.501 47.3382C37.0592 47.0934 35.8985 46.4332 35.1539 45.385C34.261 44.1194 33.9655 42.3474 34.3532 40.5184C34.6022 39.3409 35.2917 38.3365 36.2983 37.6759C37.3095 37.0244 38.5172 36.7989 39.6947 37.0456C40.6056 37.2327 41.3827 37.7722 41.8874 38.5507C42.388 39.321 42.5575 40.2514 42.3664 41.1564C42.2218 41.8418 41.8228 42.4273 41.2368 42.81C40.6481 43.195 39.9464 43.3296 39.2474 43.181C38.7798 43.082 38.3907 42.8069 38.1083 42.4328C38.8046 42.2981 39.3337 41.704 39.3256 40.9693C39.3147 40.147 38.6379 39.4864 37.8124 39.5C37.1907 39.5058 36.6666 39.8908 36.4465 40.4325C36.4244 40.4818 36.3706 40.5012 36.3598 40.5618C36.3282 40.691 36.3652 40.8206 36.353 40.9494C36.353 40.9716 36.339 40.991 36.339 41.0131C36.339 41.0294 36.3498 41.0429 36.3498 41.0601C36.306 41.7727 36.4267 42.4798 36.8274 43.0906C37.3199 43.8529 38.0749 44.3697 38.9623 44.5595C40.0187 44.7823 41.1026 44.5817 42.0135 43.9898C42.9117 43.401 43.5321 42.496 43.7521 41.4478C44.0218 40.1741 43.7824 38.8728 43.0726 37.7835C42.3627 36.691 41.2639 35.9373 39.9898 35.6676C38.4436 35.34 36.86 35.6346 35.5343 36.4958C34.2068 37.3565 33.3032 38.6826 32.9756 40.226C32.5915 42.0424 32.8007 43.8113 33.5051 45.2748C33.244 45.0303 32.9783 44.7881 32.7474 44.5017C31.4597 42.9036 30.8737 40.8975 31.0996 38.848C31.4575 35.5546 34.4355 33.1776 37.7315 33.5214C38.084 33.5657 38.4675 33.2851 38.506 32.8911C38.5484 32.5057 38.2692 32.1596 37.8815 32.1212C33.8259 31.6974 30.1395 34.6275 29.6967 38.6939C29.4328 41.1067 30.1246 43.4864 31.6459 45.3823C33.1703 47.2777 35.3423 48.466 37.7591 48.7276C38.0053 48.7574 38.2475 48.7601 38.4924 48.7719C38.5299 48.7773 38.557 48.7909 38.5999 48.7936C38.6302 48.7967 38.6591 48.7995 38.6862 48.7995C38.707 48.7995 38.7151 48.7854 38.7319 48.7854C38.82 48.7854 38.9067 48.7995 38.9975 48.7995C41.5354 48.7995 43.9866 47.9432 45.99 46.3284C47.5416 45.0796 48.6626 43.4566 49.3674 41.6543V45.9597C46.4992 46.2733 44.2595 48.686 44.2595 51.6356C44.2595 54.8024 46.8345 57.3778 50.0013 57.3778C53.1695 57.3778 55.7445 54.8024 55.7445 51.6356C55.7445 48.7357 53.5735 46.3587 50.7757 45.9737V42.0035C51.491 43.6658 52.5614 45.1623 54.0086 46.3284C56.0165 47.9432 58.4627 48.7995 60.9997 48.7995C61.0846 48.7995 61.1759 48.7886 61.2663 48.7854C61.283 48.7854 61.2911 48.7995 61.3078 48.7995C61.3376 48.7995 61.3684 48.7994 61.3986 48.7936C61.4343 48.7909 61.4646 48.7773 61.5057 48.7719C61.7479 48.7606 61.9923 48.7579 62.2345 48.7276C64.6531 48.466 66.8237 47.275 68.345 45.3823C69.8663 43.4896 70.5621 41.1067 70.2983 38.6939C69.8528 34.6248 66.174 31.6861 62.1134 32.118C61.728 32.1596 61.4452 32.5057 61.4886 32.8884C61.5328 33.2819 61.9042 33.5594 62.2589 33.5187C65.5577 33.1748 68.5375 35.5487 68.8926 38.8448C69.1154 40.892 68.5294 42.8977 67.2448 44.4963C67.0135 44.785 66.7492 45.0272 66.4821 45.2693C67.187 43.8027 67.3984 42.037 67.0162 40.2206C66.6886 38.6772 65.7809 37.3457 64.4575 36.4899C63.1314 35.6292 61.5495 35.3341 60.0007 35.6617C58.7243 35.9314 57.629 36.6855 56.9197 37.7776C56.2126 38.867 55.9699 40.1687 56.2397 41.4392C56.4597 42.4929 57.0765 43.3956 57.9788 43.9843C58.8842 44.5731 59.9677 44.7741 61.0299 44.5541C61.9101 44.3639 62.6728 43.8443 63.1653 43.0848C63.5615 42.4739 63.6826 41.7668 63.641 41.0547C63.641 41.038 63.6496 41.0244 63.6496 41.0077C63.6496 40.9797 63.6388 40.9607 63.6388 40.944C63.6279 40.8148 63.6609 40.6856 63.6334 40.5563C63.6198 40.4904 63.5561 40.4596 63.5263 40.3995C63.3004 39.8736 62.7884 39.5027 62.1753 39.4968C61.3498 39.4832 60.6762 40.1407 60.6649 40.9661C60.654 41.7008 61.1822 42.2895 61.8807 42.4296C61.5916 42.8037 61.2039 43.0735 60.739 43.1778C60.0459 43.3238 59.3383 43.1887 58.75 42.8064C58.164 42.4237 57.7623 41.8377 57.625 41.1505C57.4293 40.245 57.6001 39.3206 58.1039 38.5475C58.61 37.7686 59.3889 37.2323 60.2939 37.0425C61.4741 36.7922 62.6818 37.0176 63.6889 37.6728C64.6988 38.3302 65.3923 39.3373 65.6372 40.5148C66.0226 42.342 65.7335 44.1136 64.8339 45.3818C64.0888 46.4328 62.9245 47.0902 61.48 47.3378C59.1002 47.4616 56.7593 46.7436 54.8774 45.23C52.8383 43.5931 51.5592 41.2603 51.2786 38.6573C50.8883 35.0974 51.9139 31.6694 54.0849 29.2372C56.0187 27.072 58.7374 25.8751 61.747 25.867C61.7605 25.867 61.775 25.867 61.7913 25.867C67.9456 25.867 71.6244 29.6886 74.8513 34.0021C74.854 34.008 74.8513 34.0161 74.8567 34.0243C74.8789 34.0491 74.901 34.0658 74.9177 34.0902C75.501 34.866 76.0703 35.6585 76.6342 36.4483C76.7802 36.6489 76.9261 36.8414 77.0693 37.0447C75.9605 36.8328 74.8355 37.0669 73.7841 37.7659C71.9985 38.9546 71.506 41.3782 72.6862 43.1692C73.3133 44.1104 74.3507 44.6192 75.4098 44.6192C76.0315 44.6192 76.6591 44.4461 77.2202 44.0801C77.8334 43.6676 78.2463 43.0486 78.395 42.3248C78.5378 41.6068 78.395 40.8694 77.9825 40.264C77.2699 39.1995 75.8142 38.9076 74.7415 39.6202C74.5242 39.7629 74.4551 40.0078 74.4745 40.2527C74.4523 40.3214 74.3891 40.3625 74.381 40.4339C74.3367 40.9377 74.7058 41.3809 75.2173 41.422C75.6908 41.4604 76.0839 41.122 76.1693 40.6625C76.4223 40.6982 76.6591 40.8197 76.8131 41.0502C77.011 41.3421 77.0829 41.694 77.011 42.046C76.9365 42.398 76.7359 42.7034 76.4363 42.9072C75.5801 43.4711 74.4279 43.237 73.8609 42.3898C73.1073 41.2508 73.4235 39.6965 74.5658 38.9365C76.5931 37.5833 78.3322 38.9808 79.1902 39.9301C79.1961 39.9328 79.201 39.9328 79.2096 39.9355C79.2286 39.9653 79.248 39.9961 79.2675 40.0155C83.2399 45.0253 86.6738 49.3502 92.5146 48.4561C94.8473 48.1014 96.8968 46.8304 98.2889 44.8826C99.7216 42.8869 100.294 40.3503 99.8563 37.9344ZM42.9537 16.7004C43.4489 14.6536 46.6926 10.5185 49.7632 6.95808C52.8347 10.518 56.0757 14.6531 56.5736 16.7004C56.6612 17.0745 56.6974 17.4459 56.7277 17.8146C56.7362 17.9741 56.7525 18.1503 56.7552 18.2985C56.7855 21.4929 54.6258 24.4144 51.3934 25.2015C50.8593 25.3307 50.3095 25.3939 49.7659 25.3967C49.2224 25.3939 48.672 25.3307 48.1425 25.2015H48.1398C44.9056 24.4144 42.7472 21.4929 42.7762 18.2985C42.7789 18.1498 42.7951 17.9709 42.8037 17.8146C42.8299 17.4432 42.8629 17.0749 42.9537 16.7004ZM53.5915 2.68832C54.3068 5.1946 55.3193 9.0907 56.0102 12.6425C54.5571 10.4719 52.5433 8.00406 50.6958 5.8746C51.7675 4.66687 52.7742 3.5608 53.5915 2.68832ZM45.9322 2.68832C46.7495 3.5608 47.7603 4.66642 48.8279 5.8746C46.9831 8.00135 44.968 10.4719 43.5135 12.6425C44.2017 9.0907 45.2151 5.19505 45.9322 2.68832ZM49.3624 47.6627V55.6003C48.7683 54.9782 48.1958 53.5698 48.1958 51.6301C48.1963 49.699 48.7683 48.293 49.3624 47.6627ZM50.7717 55.3798V47.8859C51.3085 48.579 51.7896 49.864 51.7896 51.6329C51.7946 53.4022 51.3107 54.6867 50.7717 55.3798ZM45.6638 51.6329C45.6638 50.2132 46.36 48.9617 47.4191 48.1719C47.0242 49.1239 46.7879 50.304 46.7879 51.6329C46.7879 52.9617 47.022 54.1423 47.4191 55.0966C46.3596 54.3045 45.6638 53.0529 45.6638 51.6329ZM54.3316 51.6329C54.3316 53.0529 53.6358 54.3041 52.5763 55.0966C52.9667 54.1391 53.2039 52.9594 53.2039 51.6329C53.2039 50.3067 52.9698 49.1239 52.5763 48.1719C53.6354 48.9589 54.3316 50.2137 54.3316 51.6329Z" fill="#C3B7AE"/>
</svg>
